# xmcd
#
# Track frame offsets:
#	182
#	18582
#	35382
#	52157
#	69432
#	96257
#	118557
#	134982
#	158407
#	172857
#
# Disc length: 2562 seconds
#
# Revision: 2
# Processed by: cddbd v1.4PL0 Copyright (c) Steve Scherf et al.
# Submitted via: EZCDDA 4.3.2
#
DISCID=840a000a
DTITLE=Vasco Rossi - I Miti Musica 3 - Vasco
DYEAR=1900
DGENRE=Blues
TTITLE0=Albachiara
TTITLE1=Anima fragile
TTITLE2=Voglio andare al mare
TTITLE3=Che ironia
TTITLE4=Siamo solo noi
TTITLE5=Colpa d'Alfredo
TTITLE6=Valium
TTITLE7=Sballi ravvicinati del 3° tipo
TTITLE8=Va be' (se proprio te lo devo dire)
TTITLE9=Tu che dormivi piano (volò via)
EXTD=
EXTT0=
EXTT1=
EXTT2=
EXTT3=
EXTT4=
EXTT5=
EXTT6=
EXTT7=
EXTT8=
EXTT9=
PLAYORDER=
